# xmcd
#
# Track frame offsets: 
#        150
#        20911
#        37380
#        58109
#
# Disc length: 992 seconds
#
# Revision: 1
# Processed by: cddbd v1.5.2PL0 Copyright (c) Steve Scherf et al.
# Submitted via: ExactAudioCopy v1.0b3
#
DISCID=3a03de04
DTITLE=織田信奈(伊藤かな恵),蜂須賀五右衛門(金田朋子)  - 織田信奈の野望 歌姫 01 Music of the differe
DTITLE=nt world 
DYEAR=2012
DGENRE=Anime
TTITLE0=ヒトツノネガイ
TTITLE1=ガンバラ☆
TTITLE2=ヒトツノネガイ(Instrumental)
TTITLE3=ガンバラ☆(Instrumental)
EXTD=YEAR: 2005
EXTT0=
EXTT1=
EXTT2=
EXTT3=
PLAYORDER=
